<svg
                xmlns="http://www.w3.org/2000/svg"
                viewBox="0 0 64 64"
                width="40"
                height="40"
                className="text-yellow-500 "
              >
                <path
                  fill="#ffc063"
                  d="M32 2C15.87 2 2 15.87 2 32s13.87 30 30 30 30-13.87 30-30S48.13 2 32 2zm0 58C16.56 60 4 47.44 4 32S16.56 4 32 4s28 12.56 28 28-12.56 28-28 28z"
                />
                <path
                  fill="#ffc063"
                  d="M44 32h-8v8c0 2.21-1.79 4-4 4s-4-1.79-4-4v-8h-8c-2.21 0-4-1.79-4-4s1.79-4 4-4h8V16c0-2.21 1.79-4 4-4s4 1.79 4 4v8h8c2.21 0 4 1.79 4 4s-1.79 4-4 4z"
                />
              </svg>